<svg xmlns="http://www.w3.org/2000/svg" version="1.1" xmlns:xlink="http://www.w3.org/1999/xlink" xmlns:svgjs="http://svgjs.dev/svgjs" width="2000" height="449" viewBox="0 0 2000 449"><g transform="matrix(1,0,0,1,-1.2121212121213603,-1.1104006478375084)"><svg viewBox="0 0 396 89" data-background-color="#c8c8c8" preserveAspectRatio="xMidYMid meet" height="449" width="2000" xmlns="http://www.w3.org/2000/svg" xmlns:xlink="http://www.w3.org/1999/xlink"><g id="tight-bounds" transform="matrix(1,0,0,1,0.24000000000003752,0.22010168743327085)"><svg viewBox="0 0 395.5199999999999 88.55979662513343" height="88.55979662513343" width="395.5199999999999"><g><svg viewBox="0 0 688.0760181883957 154.065210946086" height="88.55979662513343" width="395.5199999999999"><g><rect width="7.717724361027369" height="154.065210946086" x="264.63482691368415" y="0" fill="#ffffff" opacity="1" stroke-width="0" stroke="transparent" fill-opacity="1" class="rect-qz-0" data-fill-palette-color="primary" rx="1%" id="qz-0" data-palette-color="#000000"></rect></g><g transform="matrix(1,0,0,1,292.55601818839574,12.838767578840503)"><svg viewBox="0 0 395.52 128.387675788405" height="128.387675788405" width="395.52"><g id="textblocktransform"><svg viewBox="0 0 395.52 128.387675788405" height="128.387675788405" width="395.52" id="textblock"><g><svg viewBox="0 0 395.52 85.58035087719298" height="85.58035087719298" width="395.52"><g transform="matrix(1,0,0,1,0,0)"><svg width="395.52" viewBox="3.25 -36.55 171.15 37.04" height="85.58035087719298" data-palette-color="#000000"><path d="M31.3-17.5L31.3-17.5Q31.3-15.09 30.68-12.85 30.05-10.62 28.91-8.68 27.76-6.74 26.17-5.14 24.58-3.54 22.63-2.39 20.68-1.25 18.44-0.62 16.21 0 13.79 0L13.79 0 3.25 0 3.25-35.01 13.79-35.01Q16.21-35.01 18.44-34.39 20.68-33.76 22.63-32.62 24.58-31.47 26.17-29.87 27.76-28.27 28.91-26.33 30.05-24.39 30.68-22.16 31.3-19.92 31.3-17.5ZM24.29-17.5L24.29-17.5Q24.29-19.68 23.47-21.58 22.66-23.49 21.23-24.91 19.8-26.34 17.88-27.17 15.97-28 13.79-28L13.79-28 10.3-28 10.3-7.01 13.79-7.01Q15.97-7.01 17.88-7.82 19.8-8.64 21.23-10.07 22.66-11.5 23.47-13.42 24.29-15.33 24.29-17.5ZM58.13-21.46L45.63-6.4Q46.02-6.27 46.41-6.24 46.8-6.2 47.19-6.2L47.19-6.2Q48.17-6.2 49.07-6.47 49.97-6.74 50.77-7.24 51.56-7.74 52.18-8.46 52.81-9.18 53.2-10.06L53.2-10.06 58.08-5.15Q57.15-3.83 55.94-2.78 54.73-1.73 53.33-1 51.93-0.27 50.38 0.11 48.83 0.49 47.19 0.49L47.19 0.49Q44.43 0.49 42-0.54 39.57-1.56 37.75-3.39 35.94-5.22 34.89-7.75 33.84-10.28 33.84-13.31L33.84-13.31Q33.84-16.41 34.89-18.97 35.94-21.53 37.75-23.34 39.57-25.15 42-26.15 44.43-27.15 47.19-27.15L47.19-27.15Q48.83-27.15 50.39-26.76 51.95-26.37 53.35-25.63 54.76-24.9 55.98-23.84 57.2-22.78 58.13-21.46L58.13-21.46ZM41.28-9.84L49.05-20.14Q48.58-20.31 48.13-20.36 47.68-20.41 47.19-20.41L47.19-20.41Q45.82-20.41 44.61-19.91 43.41-19.41 42.51-18.48 41.62-17.55 41.11-16.25 40.6-14.94 40.6-13.31L40.6-13.31Q40.6-12.94 40.63-12.48 40.67-12.01 40.76-11.54 40.84-11.06 40.96-10.62 41.09-10.18 41.28-9.84L41.28-9.84ZM75.24 0L68.55 0 58.59-26.15 66.18-26.15 71.89-9.84 77.58-26.15 85.2-26.15 75.24 0ZM116.45-10.5L116.45-10.5Q116.45-8.33 115.62-6.42 114.79-4.52 113.36-3.09 111.93-1.66 110.03-0.83 108.12 0 105.95 0L105.95 0 88.44 0 88.44-35.01 105.95-35.01Q108.12-35.01 110.03-34.18 111.93-33.35 113.36-31.92 114.79-30.49 115.62-28.59 116.45-26.68 116.45-24.51L116.45-24.51Q116.45-23.54 116.18-22.51 115.91-21.48 115.42-20.53 114.93-19.58 114.25-18.8 113.57-18.02 112.74-17.5L112.74-17.5Q113.59-17.04 114.27-16.25 114.96-15.45 115.45-14.5 115.93-13.55 116.19-12.51 116.45-11.47 116.45-10.5ZM95.45-13.99L95.45-7.01 105.95-7.01Q106.68-7.01 107.32-7.28 107.95-7.54 108.43-8.02 108.9-8.5 109.17-9.13 109.44-9.77 109.44-10.5L109.44-10.5Q109.44-11.23 109.17-11.87 108.9-12.5 108.43-12.98 107.95-13.45 107.32-13.72 106.68-13.99 105.95-13.99L105.95-13.99 95.45-13.99ZM95.45-28L95.45-21 105.95-21Q106.68-21 107.32-21.26 107.95-21.53 108.43-22.01 108.9-22.49 109.17-23.13 109.44-23.78 109.44-24.51L109.44-24.51Q109.44-25.24 109.17-25.88 108.9-26.51 108.43-26.99 107.95-27.47 107.32-27.73 106.68-28 105.95-28L105.95-28 95.45-28ZM142.45 0L140.25-3.05Q139.44-2.32 138.53-1.67 137.61-1.03 136.61-0.55 135.61-0.07 134.55 0.21 133.49 0.49 132.39 0.49L132.39 0.49Q129.97 0.49 127.85-0.37 125.72-1.22 124.12-2.8 122.52-4.37 121.61-6.63 120.69-8.89 120.69-11.69L120.69-11.69 120.69-26.15 127.33-26.15 127.33-11.69Q127.33-10.38 127.74-9.34 128.14-8.3 128.82-7.59 129.51-6.88 130.42-6.52 131.34-6.15 132.39-6.15L132.39-6.15Q133.41-6.15 134.33-6.63 135.24-7.1 135.93-7.89 136.61-8.67 137-9.66 137.39-10.64 137.39-11.69L137.39-11.69 137.39-26.15 144.06-26.15 144.06 0 142.45 0ZM174.4-36.55L174.4 0 172.79 0 170.2-3.59Q169.25-2.73 168.19-1.99 167.13-1.25 165.95-0.7 164.78-0.15 163.55 0.17 162.32 0.49 161.05 0.49L161.05 0.49Q158.29 0.49 155.86-0.55 153.43-1.59 151.61-3.43 149.79-5.27 148.74-7.8 147.69-10.33 147.69-13.31L147.69-13.31Q147.69-16.26 148.74-18.8 149.79-21.34 151.61-23.19 153.43-25.05 155.86-26.1 158.29-27.15 161.05-27.15L161.05-27.15Q161.93-27.15 162.87-27 163.81-26.86 164.7-26.53 165.59-26.2 166.37-25.66 167.15-25.12 167.69-24.34L167.69-24.34 167.69-36.55 174.4-36.55ZM167.69-13.31L167.69-13.31Q167.69-14.67 167.16-15.95 166.64-17.24 165.73-18.23 164.83-19.21 163.62-19.81 162.41-20.41 161.05-20.41L161.05-20.41Q159.68-20.41 158.47-19.92 157.26-19.43 156.37-18.52 155.48-17.6 154.97-16.28 154.46-14.97 154.46-13.31L154.46-13.31Q154.46-11.87 154.97-10.57 155.48-9.28 156.37-8.3 157.26-7.32 158.47-6.76 159.68-6.2 161.05-6.2L161.05-6.2Q162.41-6.2 163.62-6.8 164.83-7.4 165.73-8.39 166.64-9.38 167.16-10.66 167.69-11.94 167.69-13.31Z" opacity="1" transform="matrix(1,0,0,1,0,0)" fill="#ffffff" class="wordmark-text-0" data-fill-palette-color="primary" id="text-0"></path></svg></g></svg></g><g transform="matrix(1,0,0,1,0,105.7838177908772)"><svg viewBox="0 0 232.20979199999996 22.60385799752781" height="22.60385799752781" width="232.20979199999996"><g transform="matrix(1,0,0,1,0,0)"><svg width="232.20979199999996" viewBox="1.34 -37.7 394.98 38.46" height="22.60385799752781" data-palette-color="#000000"><path d="M27.49-9.69L31.2-3.59Q28.76-1.49 25.73-0.37 22.71 0.76 19.46 0.76L19.46 0.76Q16.97 0.76 14.66 0.11 12.35-0.54 10.34-1.72 8.33-2.91 6.67-4.57 5-6.23 3.82-8.24 2.64-10.25 1.99-12.56 1.34-14.87 1.34-17.36L1.34-17.36Q1.34-19.85 1.99-22.17 2.64-24.49 3.82-26.5 5-28.52 6.67-30.18 8.33-31.84 10.34-33.02 12.35-34.2 14.66-34.85 16.97-35.5 19.46-35.5L19.46-35.5Q22.71-35.5 25.73-34.39 28.76-33.28 31.2-31.15L31.2-31.15 27.49-25.05Q25.95-26.71 23.85-27.6 21.75-28.49 19.46-28.49L19.46-28.49Q17.14-28.49 15.11-27.61 13.09-26.73 11.57-25.23 10.06-23.73 9.18-21.69 8.3-19.65 8.3-17.36L8.3-17.36Q8.3-15.06 9.18-13.05 10.06-11.04 11.57-9.52 13.09-8.01 15.11-7.13 17.14-6.25 19.46-6.25L19.46-6.25Q21.75-6.25 23.85-7.14 25.95-8.03 27.49-9.69L27.49-9.69ZM58.91-13.31L58.91-13.31Q58.91-10.38 57.86-7.85 56.81-5.32 55-3.48 53.2-1.64 50.77-0.57 48.34 0.49 45.55 0.49L45.55 0.49Q42.8 0.49 40.37-0.57 37.94-1.64 36.12-3.48 34.3-5.32 33.25-7.85 32.2-10.38 32.2-13.31L32.2-13.31Q32.2-16.28 33.25-18.82 34.3-21.36 36.12-23.21 37.94-25.05 40.37-26.1 42.8-27.15 45.55-27.15L45.55-27.15Q48.34-27.15 50.77-26.16 53.2-25.17 55-23.35 56.81-21.53 57.86-18.98 58.91-16.43 58.91-13.31ZM52.19-13.31L52.19-13.31Q52.19-14.92 51.67-16.22 51.14-17.53 50.24-18.47 49.34-19.41 48.13-19.91 46.92-20.41 45.55-20.41L45.55-20.41Q44.19-20.41 42.98-19.91 41.77-19.41 40.88-18.47 39.99-17.53 39.48-16.22 38.96-14.92 38.96-13.31L38.96-13.31Q38.96-11.79 39.48-10.5 39.99-9.2 40.88-8.25 41.77-7.3 42.98-6.75 44.19-6.2 45.55-6.2L45.55-6.2Q46.92-6.2 48.13-6.71 49.34-7.23 50.24-8.15 51.14-9.08 51.67-10.4 52.19-11.72 52.19-13.31ZM87.86-36.55L87.86 0 86.25 0 83.66-3.59Q82.71-2.73 81.65-1.99 80.59-1.25 79.41-0.7 78.24-0.15 77.01 0.17 75.78 0.49 74.51 0.49L74.51 0.49Q71.75 0.49 69.32-0.55 66.89-1.59 65.07-3.43 63.25-5.27 62.2-7.8 61.15-10.33 61.15-13.31L61.15-13.31Q61.15-16.26 62.2-18.8 63.25-21.34 65.07-23.19 66.89-25.05 69.32-26.1 71.75-27.15 74.51-27.15L74.51-27.15Q75.39-27.15 76.33-27 77.27-26.86 78.16-26.53 79.05-26.2 79.83-25.66 80.61-25.12 81.15-24.34L81.15-24.34 81.15-36.55 87.86-36.55ZM81.15-13.31L81.15-13.31Q81.15-14.67 80.62-15.95 80.1-17.24 79.19-18.23 78.29-19.21 77.08-19.81 75.87-20.41 74.51-20.41L74.51-20.41Q73.14-20.41 71.93-19.92 70.72-19.43 69.83-18.52 68.94-17.6 68.43-16.28 67.91-14.97 67.91-13.31L67.91-13.31Q67.91-11.87 68.43-10.57 68.94-9.28 69.83-8.3 70.72-7.32 71.93-6.76 73.14-6.2 74.51-6.2L74.51-6.2Q75.87-6.2 77.08-6.8 78.29-7.4 79.19-8.39 80.1-9.38 80.62-10.66 81.15-11.94 81.15-13.31ZM115.84-21.46L103.34-6.4Q103.73-6.27 104.12-6.24 104.51-6.2 104.9-6.2L104.9-6.2Q105.88-6.2 106.78-6.47 107.68-6.74 108.48-7.24 109.27-7.74 109.89-8.46 110.51-9.18 110.91-10.06L110.91-10.06 115.79-5.15Q114.86-3.83 113.65-2.78 112.44-1.73 111.04-1 109.64-0.27 108.09 0.11 106.54 0.49 104.9 0.49L104.9 0.49Q102.14 0.49 99.71-0.54 97.28-1.56 95.46-3.39 93.64-5.22 92.6-7.75 91.55-10.28 91.55-13.31L91.55-13.31Q91.55-16.41 92.6-18.97 93.64-21.53 95.46-23.34 97.28-25.15 99.71-26.15 102.14-27.15 104.9-27.15L104.9-27.15Q106.54-27.15 108.1-26.76 109.66-26.37 111.06-25.63 112.47-24.9 113.69-23.84 114.91-22.78 115.84-21.46L115.84-21.46ZM98.99-9.84L106.76-20.14Q106.29-20.31 105.84-20.36 105.39-20.41 104.9-20.41L104.9-20.41Q103.53-20.41 102.32-19.91 101.12-19.41 100.22-18.48 99.33-17.55 98.82-16.25 98.31-14.94 98.31-13.31L98.31-13.31Q98.31-12.94 98.34-12.48 98.38-12.01 98.47-11.54 98.55-11.06 98.67-10.62 98.8-10.18 98.99-9.84L98.99-9.84ZM125.84-14.4L125.84 0 119.18 0 119.18-26.15 120.79-26.15 122.99-23.05Q124.6-24.51 126.65-25.31 128.7-26.1 130.9-26.1L130.9-26.1 136.78-26.1 136.78-19.46 130.9-19.46Q129.85-19.46 128.92-19.07 127.99-18.68 127.31-17.99 126.63-17.31 126.24-16.38 125.84-15.45 125.84-14.4L125.84-14.4ZM146.84-35.01L145.84-24 140.78-24 139.78-35.01 146.84-35.01ZM166.17 0L166.17 0 150.94 0 150.94-6.64 166.17-6.64Q166.86-6.64 167.34-7.13 167.83-7.62 167.83-8.3L167.83-8.3Q167.83-9.01 167.34-9.23 166.86-9.45 166.17-9.45L166.17-9.45 159.24-9.45Q157.5-9.45 155.99-10.11 154.48-10.77 153.35-11.9 152.23-13.04 151.58-14.55 150.94-16.06 150.94-17.8L150.94-17.8Q150.94-19.53 151.58-21.04 152.23-22.56 153.35-23.68 154.48-24.8 155.99-25.45 157.5-26.1 159.24-26.1L159.24-26.1 172.74-26.1 172.74-19.46 159.24-19.46Q158.55-19.46 158.07-18.97 157.58-18.48 157.58-17.8L157.58-17.8Q157.58-17.09 158.07-16.59 158.55-16.09 159.24-16.09L159.24-16.09 166.17-16.09Q167.88-16.09 169.39-15.52 170.91-14.94 172.03-13.92 173.15-12.89 173.81-11.45 174.47-10.01 174.47-8.3L174.47-8.3Q174.47-6.57 173.81-5.07 173.15-3.56 172.03-2.43 170.91-1.29 169.39-0.65 167.88 0 166.17 0ZM206.72-28L199.71-28 199.71-13.99 206.72-13.99Q208.16-13.99 209.43-14.54 210.7-15.09 211.65-16.04 212.6-16.99 213.15-18.27 213.7-19.56 213.7-21L213.7-21Q213.7-22.44 213.15-23.72 212.6-25 211.65-25.95 210.7-26.9 209.43-27.45 208.16-28 206.72-28L206.72-28ZM199.71-7.01L199.71 0 192.7 0 192.7-35.01 206.72-35.01Q208.65-35.01 210.43-34.51 212.21-34.01 213.76-33.09 215.31-32.18 216.59-30.9 217.88-29.61 218.79-28.05 219.71-26.49 220.21-24.71 220.71-22.92 220.71-21L220.71-21Q220.71-18.12 219.61-15.56 218.51-13.01 216.61-11.11 214.7-9.2 212.15-8.11 209.6-7.01 206.72-7.01L206.72-7.01 199.71-7.01ZM249.42-26.1L249.42 0 247.8 0 245.22-3.59Q244.26-2.73 243.2-1.99 242.14-1.25 240.97-0.7 239.8-0.15 238.56 0.17 237.33 0.49 236.06 0.49L236.06 0.49Q233.3 0.49 230.87-0.44 228.44-1.37 226.63-3.14 224.81-4.91 223.76-7.47 222.71-10.03 222.71-13.31L222.71-13.31Q222.71-16.36 223.76-18.91 224.81-21.46 226.63-23.29 228.44-25.12 230.87-26.14 233.3-27.15 236.06-27.15L236.06-27.15Q237.33-27.15 238.58-26.83 239.82-26.51 240.99-25.95 242.17-25.39 243.23-24.63 244.29-23.88 245.22-23L245.22-23 247.8-26.1 249.42-26.1ZM242.7-13.31L242.7-13.31Q242.7-14.67 242.18-15.95 241.65-17.24 240.75-18.23 239.85-19.21 238.64-19.81 237.43-20.41 236.06-20.41L236.06-20.41Q234.69-20.41 233.49-19.95 232.28-19.48 231.39-18.58 230.5-17.68 229.98-16.35 229.47-15.01 229.47-13.31L229.47-13.31Q229.47-11.6 229.98-10.27 230.5-8.94 231.39-8.03 232.28-7.13 233.49-6.67 234.69-6.2 236.06-6.2L236.06-6.2Q237.43-6.2 238.64-6.8 239.85-7.4 240.75-8.39 241.65-9.38 242.18-10.66 242.7-11.94 242.7-13.31ZM261.16-14.4L261.16 0 254.49 0 254.49-26.15 256.1-26.15 258.3-23.05Q259.91-24.51 261.96-25.31 264.01-26.1 266.21-26.1L266.21-26.1 272.09-26.1 272.09-19.46 266.21-19.46Q265.16-19.46 264.23-19.07 263.31-18.68 262.62-17.99 261.94-17.31 261.55-16.38 261.16-15.45 261.16-14.4L261.16-14.4ZM300.02-26.1L300.02 0 298.41 0 295.82-3.59Q294.87-2.73 293.81-1.99 292.75-1.25 291.57-0.7 290.4-0.15 289.17 0.17 287.94 0.49 286.67 0.49L286.67 0.49Q283.91 0.49 281.48-0.44 279.05-1.37 277.23-3.14 275.41-4.91 274.36-7.47 273.31-10.03 273.31-13.31L273.31-13.31Q273.31-16.36 274.36-18.91 275.41-21.46 277.23-23.29 279.05-25.12 281.48-26.14 283.91-27.15 286.67-27.15L286.67-27.15Q287.94-27.15 289.18-26.83 290.43-26.51 291.6-25.95 292.77-25.39 293.83-24.63 294.89-23.88 295.82-23L295.82-23 298.41-26.1 300.02-26.1ZM293.31-13.31L293.31-13.31Q293.31-14.67 292.78-15.95 292.26-17.24 291.35-18.23 290.45-19.21 289.24-19.81 288.03-20.41 286.67-20.41L286.67-20.41Q285.3-20.41 284.09-19.95 282.88-19.48 281.99-18.58 281.1-17.68 280.59-16.35 280.08-15.01 280.08-13.31L280.08-13.31Q280.08-11.6 280.59-10.27 281.1-8.94 281.99-8.03 282.88-7.13 284.09-6.67 285.3-6.2 286.67-6.2L286.67-6.2Q288.03-6.2 289.24-6.8 290.45-7.4 291.35-8.39 292.26-9.38 292.78-10.66 293.31-11.94 293.31-13.31ZM330.37-36.55L330.37 0 328.75 0 326.17-3.59Q325.21-2.73 324.15-1.99 323.09-1.25 321.92-0.7 320.75-0.15 319.51 0.17 318.28 0.49 317.01 0.49L317.01 0.49Q314.25 0.49 311.82-0.55 309.39-1.59 307.57-3.43 305.76-5.27 304.71-7.8 303.66-10.33 303.66-13.31L303.66-13.31Q303.66-16.26 304.71-18.8 305.76-21.34 307.57-23.19 309.39-25.05 311.82-26.1 314.25-27.15 317.01-27.15L317.01-27.15Q317.89-27.15 318.83-27 319.77-26.86 320.66-26.53 321.55-26.2 322.33-25.66 323.11-25.12 323.65-24.34L323.65-24.34 323.65-36.55 330.37-36.55ZM323.65-13.31L323.65-13.31Q323.65-14.67 323.13-15.95 322.6-17.24 321.7-18.23 320.8-19.21 319.59-19.81 318.38-20.41 317.01-20.41L317.01-20.41Q315.64-20.41 314.44-19.92 313.23-19.43 312.34-18.52 311.44-17.6 310.93-16.28 310.42-14.97 310.42-13.31L310.42-13.31Q310.42-11.87 310.93-10.57 311.44-9.28 312.34-8.3 313.23-7.32 314.44-6.76 315.64-6.2 317.01-6.2L317.01-6.2Q318.38-6.2 319.59-6.8 320.8-7.4 321.7-8.39 322.6-9.38 323.13-10.66 323.65-11.94 323.65-13.31ZM343.3-33.25L343.3-33.25Q343.3-32.32 342.95-31.52 342.59-30.71 341.98-30.11 341.37-29.52 340.56-29.16 339.74-28.81 338.81-28.81L338.81-28.81Q337.88-28.81 337.06-29.16 336.25-29.52 335.65-30.11 335.05-30.71 334.7-31.52 334.34-32.32 334.34-33.25L334.34-33.25Q334.34-34.16 334.7-34.97 335.05-35.79 335.65-36.39 336.25-36.99 337.06-37.34 337.88-37.7 338.81-37.7L338.81-37.7Q339.74-37.7 340.56-37.34 341.37-36.99 341.98-36.39 342.59-35.79 342.95-34.97 343.3-34.16 343.3-33.25ZM342.16-26.15L342.16 0 335.44 0 335.44-26.15 342.16-26.15ZM361.59 0L361.59 0 346.35 0 346.35-6.64 361.59-6.64Q362.27-6.64 362.76-7.13 363.25-7.62 363.25-8.3L363.25-8.3Q363.25-9.01 362.76-9.23 362.27-9.45 361.59-9.45L361.59-9.45 354.65-9.45Q352.92-9.45 351.41-10.11 349.89-10.77 348.77-11.9 347.65-13.04 347-14.55 346.35-16.06 346.35-17.8L346.35-17.8Q346.35-19.53 347-21.04 347.65-22.56 348.77-23.68 349.89-24.8 351.41-25.45 352.92-26.1 354.65-26.1L354.65-26.1 368.15-26.1 368.15-19.46 354.65-19.46Q353.97-19.46 353.48-18.97 352.99-18.48 352.99-17.8L352.99-17.8Q352.99-17.09 353.48-16.59 353.97-16.09 354.65-16.09L354.65-16.09 361.59-16.09Q363.3-16.09 364.81-15.52 366.32-14.94 367.45-13.92 368.57-12.89 369.23-11.45 369.89-10.01 369.89-8.3L369.89-8.3Q369.89-6.57 369.23-5.07 368.57-3.56 367.45-2.43 366.32-1.29 364.81-0.65 363.3 0 361.59 0ZM396.32-21.46L383.82-6.4Q384.22-6.27 384.61-6.24 385-6.2 385.39-6.2L385.39-6.2Q386.36-6.2 387.27-6.47 388.17-6.74 388.96-7.24 389.76-7.74 390.38-8.46 391-9.18 391.39-10.06L391.39-10.06 396.28-5.15Q395.35-3.83 394.14-2.78 392.93-1.73 391.53-1 390.12-0.27 388.57 0.11 387.02 0.49 385.39 0.49L385.39 0.49Q382.63 0.49 380.2-0.54 377.77-1.56 375.95-3.39 374.13-5.22 373.08-7.75 372.03-10.28 372.03-13.31L372.03-13.31Q372.03-16.41 373.08-18.97 374.13-21.53 375.95-23.34 377.77-25.15 380.2-26.15 382.63-27.15 385.39-27.15L385.39-27.15Q387.02-27.15 388.59-26.76 390.15-26.37 391.55-25.63 392.96-24.9 394.18-23.84 395.4-22.78 396.32-21.46L396.32-21.46ZM379.48-9.84L387.24-20.14Q386.78-20.31 386.33-20.36 385.88-20.41 385.39-20.41L385.39-20.41Q384.02-20.41 382.81-19.91 381.6-19.41 380.71-18.48 379.82-17.55 379.31-16.25 378.8-14.94 378.8-13.31L378.8-13.31Q378.8-12.94 378.83-12.48 378.87-12.01 378.95-11.54 379.04-11.06 379.16-10.62 379.28-10.18 379.48-9.84L379.48-9.84Z" opacity="1" transform="matrix(1,0,0,1,0,0)" fill="#ffffff" class="slogan-text-1" data-fill-palette-color="secondary" id="text-1"></path></svg></g></svg></g></svg></g></svg></g><g transform="matrix(1,0,0,1,0,21.33942885609119)"><svg viewBox="0 0 244.43135999999996 111.38635323390363" height="111.38635323390363" width="244.43135999999996"><g><svg xmlns="http://www.w3.org/2000/svg" xmlns:xlink="http://www.w3.org/1999/xlink" version="1.1" x="0" y="0" viewBox="5 29.49387475885969 90 41.012625348283166" enable-background="new 0 0 100 100" xml:space="preserve" height="111.38635323390363" width="244.43135999999996" class="icon-icon-0" data-fill-palette-color="accent" id="icon-0"><g fill="#000000" data-fill-palette-color="accent"><path d="M23.943 30.807L5 50.001l18.942 19.192c1.728 1.751 4.53 1.751 6.258 0.002 1.729-1.75 1.73-4.587 0.002-6.338L18.193 50.695l-3.624 2.289 15.634-15.841c0.864-0.875 1.295-2.021 1.295-3.168 0-1.147-0.433-2.295-1.297-3.17C28.473 29.056 25.671 29.057 23.943 30.807z" fill="#ffffff" data-fill-palette-color="accent"></path><path d="M76.057 30.808L95 50.001 76.058 69.193c-1.728 1.751-4.53 1.751-6.258 0.002-1.729-1.75-1.73-4.587-0.002-6.338l12.009-12.161 3.624 2.289L69.796 37.144c-0.864-0.875-1.295-2.021-1.295-3.168 0-1.147 0.433-2.295 1.297-3.17C71.527 29.056 74.329 29.057 76.057 30.808z" fill="#ffffff" data-fill-palette-color="accent"></path><path d="M60.899 32.352c-0.419-1.068-1.241-1.978-2.366-2.476-2.249-0.997-4.857 0.028-5.825 2.288l-13.82 32.062c-0.484 1.13-0.467 2.355-0.048 3.422 0.419 1.068 1.241 1.978 2.366 2.476 2.249 0.997 4.857-0.028 5.825-2.288l13.82-32.062C61.335 34.644 61.318 33.419 60.899 32.352z" fill="#ffffff" data-fill-palette-color="accent"></path></g></svg></g></svg></g></svg></g><defs></defs></svg><rect width="395.5199999999999" height="88.55979662513343" fill="none" stroke="none" visibility="hidden"></rect></g></svg></g></svg>